<?xml version="1.0" standalone="no"?>
<!DOCTYPE svg PUBLIC "-//W3C//DTD SVG 20010904//EN"
 "http://www.w3.org/TR/2001/REC-SVG-20010904/DTD/svg10.dtd">
<svg version="1.0" xmlns="http://www.w3.org/2000/svg"
 width="512.000000pt" height="512.000000pt" viewBox="0 0 512.000000 512.000000"
 preserveAspectRatio="xMidYMid meet">

<g transform="translate(0.000000,512.000000) scale(0.100000,-0.100000)"
fill="#ffffff" stroke="none">
<path d="M2438 4383 c-28 -9 -427 -269 -980 -637 -1028 -686 -983 -651 -975
-749 7 -83 64 -138 149 -144 47 -4 59 -1 108 31 l55 35 5 -772 c6 -764 6 -773
28 -845 76 -249 252 -443 481 -531 136 -52 169 -55 531 -56 320 0 337 1 370
21 19 11 45 35 57 54 l23 33 0 561 c0 492 2 564 16 584 15 22 18 22 254 22
236 0 239 0 254 -22 14 -20 16 -92 16 -584 l0 -561 23 -33 c12 -19 38 -43 57
-54 32 -19 54 -21 294 -24 319 -4 457 7 571 46 251 87 437 282 517 544 22 72
22 81 28 845 l5 772 55 -35 c49 -32 61 -35 108 -31 85 6 142 61 149 144 8 98
54 63 -977 750 -648 432 -950 628 -984 638 -64 19 -178 18 -238 -2z"/>
</g>
</svg>
