<?xml version="1.0" standalone="no"?>
<!DOCTYPE svg PUBLIC "-//W3C//DTD SVG 20010904//EN"
 "http://www.w3.org/TR/2001/REC-SVG-20010904/DTD/svg10.dtd">
<svg version="1.0" xmlns="http://www.w3.org/2000/svg"
 width="512.000000pt" height="512.000000pt" viewBox="0 0 512.000000 512.000000"
 preserveAspectRatio="xMidYMid meet">

<g transform="translate(0.000000,512.000000) scale(0.100000,-0.100000)"
fill="#ffffff" stroke="none">
<path d="M2435 4780 c-317 -36 -595 -169 -820 -395 -262 -261 -398 -589 -398
-955 0 -366 136 -694 398 -955 145 -146 315 -255 500 -321 l80 -29 -55 -3
c-104 -5 -268 -32 -392 -66 -319 -88 -607 -256 -848 -496 -359 -356 -552 -775
-590 -1275 -13 -165 -6 -198 50 -249 l40 -36 2160 0 2160 0 40 36 c56 51 63
84 50 249 -38 500 -232 921 -590 1275 -324 322 -766 529 -1187 557 l-95 6 88
32 c188 67 352 172 499 320 262 261 398 589 398 955 0 366 -136 694 -398 955
-247 248 -551 382 -905 399 -58 2 -141 1 -185 -4z"/>
</g>
</svg>
